<?xml version="1.0" encoding="utf-8"?>
<!-- Generator: Adobe Illustrator 24.1.0, SVG Export Plug-In . SVG Version: 6.00 Build 0)  -->
<svg version="1.1" id="Capa_1" xmlns="http://www.w3.org/2000/svg" xmlns:xlink="http://www.w3.org/1999/xlink" x="0px" y="0px"
	 viewBox="0 0 50.9 8.3" style="enable-background:new 0 0 50.9 8.3;" xml:space="preserve">
<style type="text/css">
	.st0{fill:#E20613;}
	.st1{fill:#FFFFFF;}
</style>
<g>
	<polygon points="2.9,2.4 2.9,2.9 0.8,2.9 0.8,4.6 2.9,4.6 2.9,5.2 0.8,5.2 0.8,6.9 2.9,6.9 2.9,7.5 0.1,7.5 0.1,2.4 	"/>
	<polygon points="8.3,2.4 8.3,7.5 7.6,7.5 7.6,3.3 6,5.5 4.3,3.3 4.3,7.5 3.6,7.5 3.6,2.4 4.3,2.4 6,4.5 7.6,2.4 	"/>
	<path d="M13.4,3.1c0.5,0.5,0.8,1.1,0.8,1.8c0,0.7-0.3,1.3-0.8,1.8c-0.5,0.5-1.1,0.8-1.9,0.8c-0.7,0-1.4-0.3-1.9-0.8
		C9.1,6.2,8.8,5.6,8.8,4.9c0-0.7,0.3-1.3,0.8-1.8c0.5-0.5,1.1-0.8,1.9-0.8C12.2,2.3,12.9,2.5,13.4,3.1 M11.5,2.8
		c-0.5,0-1,0.2-1.4,0.6C9.7,3.8,9.5,4.3,9.5,4.9c0,0.6,0.2,1.1,0.6,1.5C10.5,6.8,10.9,7,11.5,7c0.5,0,1-0.2,1.4-0.6
		c0.4-0.4,0.6-0.9,0.6-1.5c0-0.6-0.2-1.1-0.6-1.5C12.5,3,12,2.8,11.5,2.8"/>
	<path d="M18.7,6.3l0.4,0.4c-0.6,0.5-1.2,0.8-1.9,0.8c-0.7,0-1.4-0.3-1.9-0.8c-0.5-0.5-0.8-1.1-0.8-1.8c0-0.7,0.3-1.3,0.8-1.8
		c0.5-0.5,1.1-0.8,1.9-0.8c0.7,0,1.3,0.3,1.9,0.8l-0.4,0.4c-0.5-0.4-1-0.6-1.5-0.6c-0.5,0-1,0.2-1.4,0.6c-0.4,0.4-0.6,0.9-0.6,1.5
		c0,0.6,0.2,1.1,0.6,1.5C16.3,6.8,16.7,7,17.3,7C17.8,7,18.3,6.8,18.7,6.3"/>
	<rect x="19.8" y="2.4" width="0.6" height="5.1"/>
	<path d="M25.7,3.1c0.5,0.5,0.8,1.1,0.8,1.8c0,0.7-0.3,1.3-0.8,1.8c-0.5,0.5-1.1,0.8-1.9,0.8c-0.7,0-1.4-0.3-1.9-0.8
		c-0.5-0.5-0.8-1.1-0.8-1.8c0-0.7,0.3-1.3,0.8-1.8c0.5-0.5,1.1-0.8,1.9-0.8C24.5,2.3,25.2,2.5,25.7,3.1 M23.8,2.8
		c-0.5,0-1,0.2-1.4,0.6c-0.4,0.4-0.6,0.9-0.6,1.5c0,0.6,0.2,1.1,0.6,1.5C22.8,6.8,23.3,7,23.8,7c0.5,0,1-0.2,1.4-0.6
		c0.4-0.4,0.6-0.9,0.6-1.5c0-0.6-0.2-1.1-0.6-1.5C24.8,3,24.3,2.8,23.8,2.8"/>
	<path d="M31.1,6.3l0.4,0.4c-0.6,0.5-1.2,0.8-1.9,0.8c-0.7,0-1.4-0.3-1.9-0.8c-0.5-0.5-0.8-1.1-0.8-1.8c0-0.7,0.3-1.3,0.8-1.8
		c0.5-0.5,1.1-0.8,1.9-0.8c0.7,0,1.3,0.3,1.9,0.8l-0.4,0.4c-0.5-0.4-1-0.6-1.5-0.6c-0.5,0-1,0.2-1.4,0.6c-0.4,0.4-0.6,0.9-0.6,1.5
		c0,0.6,0.2,1.1,0.6,1.5C28.6,6.8,29.1,7,29.6,7C30.1,7,30.6,6.8,31.1,6.3"/>
	<polygon points="32.1,7.5 32.1,2.4 32.8,2.4 32.8,6.9 34.6,6.9 34.6,7.5 	"/>
	<polygon points="43.5,3.6 44.5,6.3 45.6,2.4 46.2,2.4 44.8,7.5 44.3,7.5 43.3,4.8 42.2,7.5 41.7,7.5 40.3,2.4 40.9,2.4 42,6.3 
		43,3.6 	"/>
	<polygon points="47.2,2.4 50.1,6.4 50.1,2.4 50.8,2.4 50.8,7.5 50.1,7.5 47.2,3.5 47.2,7.5 46.6,7.5 46.6,2.4 	"/>
	<path class="st0" d="M40.7,4.9c0,1.8-1.4,3.2-3.2,3.2s-3.2-1.4-3.2-3.2c0-1.8,1.4-3.2,3.2-3.2S40.7,3.2,40.7,4.9"/>
	<path d="M41.6,0.7c-0.2,0-0.4,0-0.5-0.1c-0.4-0.1-0.9-0.1-1.3,0C39.3,0.7,39,0.8,38.6,1c-0.1,0-0.1,0.1-0.2,0.1c0,0-0.1,0-0.1,0
		c0,0,0-0.1,0-0.1c0-0.1,0.1-0.1,0.1-0.2c0.2-0.2,0.4-0.3,0.6-0.3c0.7-0.3,1.4-0.3,2.1-0.2c0.1,0,0.3,0.1,0.4,0.2c0,0,0.1,0,0.1,0.1
		C41.7,0.6,41.7,0.6,41.6,0.7C41.6,0.7,41.6,0.7,41.6,0.7"/>
	<path d="M33.8,0.7c0.2,0,0.4,0,0.5-0.1c0.4-0.1,0.9-0.1,1.3,0C36,0.7,36.4,0.8,36.7,1c0.1,0,0.1,0.1,0.2,0.1c0,0,0.1,0,0.1,0
		c0,0,0-0.1,0-0.1c0-0.1-0.1-0.1-0.1-0.2c-0.2-0.2-0.4-0.3-0.6-0.3c-0.7-0.3-1.4-0.3-2.1-0.2c-0.1,0-0.3,0.1-0.4,0.2
		c0,0-0.1,0-0.1,0.1C33.7,0.6,33.6,0.6,33.8,0.7C33.7,0.7,33.7,0.7,33.8,0.7"/>
	<polygon points="2.9,2.4 2.9,2.9 0.8,2.9 0.8,4.6 2.9,4.6 2.9,5.2 0.8,5.2 0.8,6.9 2.9,6.9 2.9,7.5 0.1,7.5 0.1,2.4 	"/>
	<polygon points="8.3,2.4 8.3,7.5 7.6,7.5 7.6,3.3 6,5.5 4.3,3.3 4.3,7.5 3.6,7.5 3.6,2.4 4.3,2.4 6,4.5 7.6,2.4 	"/>
	<path d="M13.4,3.1c0.5,0.5,0.8,1.1,0.8,1.8c0,0.7-0.3,1.3-0.8,1.8c-0.5,0.5-1.1,0.8-1.9,0.8c-0.7,0-1.4-0.3-1.9-0.8
		C9.1,6.2,8.8,5.6,8.8,4.9c0-0.7,0.3-1.3,0.8-1.8c0.5-0.5,1.1-0.8,1.9-0.8C12.2,2.3,12.9,2.5,13.4,3.1 M11.5,2.8
		c-0.5,0-1,0.2-1.4,0.6C9.7,3.8,9.5,4.3,9.5,4.9c0,0.6,0.2,1.1,0.6,1.5C10.5,6.8,10.9,7,11.5,7c0.5,0,1-0.2,1.4-0.6
		c0.4-0.4,0.6-0.9,0.6-1.5c0-0.6-0.2-1.1-0.6-1.5C12.5,3,12,2.8,11.5,2.8"/>
	<path d="M18.7,6.3l0.4,0.4c-0.6,0.5-1.2,0.8-1.9,0.8c-0.7,0-1.4-0.3-1.9-0.8c-0.5-0.5-0.8-1.1-0.8-1.8c0-0.7,0.3-1.3,0.8-1.8
		c0.5-0.5,1.1-0.8,1.9-0.8c0.7,0,1.3,0.3,1.9,0.8l-0.4,0.4c-0.5-0.4-1-0.6-1.5-0.6c-0.5,0-1,0.2-1.4,0.6c-0.4,0.4-0.6,0.9-0.6,1.5
		c0,0.6,0.2,1.1,0.6,1.5C16.3,6.8,16.7,7,17.3,7C17.8,7,18.3,6.8,18.7,6.3"/>
	<rect x="19.8" y="2.4" width="0.6" height="5.1"/>
	<path d="M25.7,3.1c0.5,0.5,0.8,1.1,0.8,1.8c0,0.7-0.3,1.3-0.8,1.8c-0.5,0.5-1.1,0.8-1.9,0.8c-0.7,0-1.4-0.3-1.9-0.8
		c-0.5-0.5-0.8-1.1-0.8-1.8c0-0.7,0.3-1.3,0.8-1.8c0.5-0.5,1.1-0.8,1.9-0.8C24.5,2.3,25.2,2.5,25.7,3.1 M23.8,2.8
		c-0.5,0-1,0.2-1.4,0.6c-0.4,0.4-0.6,0.9-0.6,1.5c0,0.6,0.2,1.1,0.6,1.5C22.8,6.8,23.3,7,23.8,7c0.5,0,1-0.2,1.4-0.6
		c0.4-0.4,0.6-0.9,0.6-1.5c0-0.6-0.2-1.1-0.6-1.5C24.8,3,24.3,2.8,23.8,2.8"/>
	<path d="M31.1,6.3l0.4,0.4c-0.6,0.5-1.2,0.8-1.9,0.8c-0.7,0-1.4-0.3-1.9-0.8c-0.5-0.5-0.8-1.1-0.8-1.8c0-0.7,0.3-1.3,0.8-1.8
		c0.5-0.5,1.1-0.8,1.9-0.8c0.7,0,1.3,0.3,1.9,0.8l-0.4,0.4c-0.5-0.4-1-0.6-1.5-0.6c-0.5,0-1,0.2-1.4,0.6c-0.4,0.4-0.6,0.9-0.6,1.5
		c0,0.6,0.2,1.1,0.6,1.5C28.6,6.8,29.1,7,29.6,7C30.1,7,30.6,6.8,31.1,6.3"/>
	<polygon points="32.1,7.5 32.1,2.4 32.8,2.4 32.8,6.9 34.6,6.9 34.6,7.5 	"/>
	<polygon points="43.5,3.6 44.5,6.3 45.6,2.4 46.2,2.4 44.8,7.5 44.3,7.5 43.3,4.8 42.2,7.5 41.7,7.5 40.3,2.4 40.9,2.4 42,6.3 
		43,3.6 	"/>
	<polygon points="47.2,2.4 50.1,6.4 50.1,2.4 50.8,2.4 50.8,7.5 50.1,7.5 47.2,3.5 47.2,7.5 46.6,7.5 46.6,2.4 	"/>
	<path class="st0" d="M40.7,4.9c0,1.8-1.4,3.2-3.2,3.2s-3.2-1.4-3.2-3.2c0-1.8,1.4-3.2,3.2-3.2S40.7,3.2,40.7,4.9"/>
	<path d="M41.6,0.7c-0.2,0-0.4,0-0.5-0.1c-0.4-0.1-0.9-0.1-1.3,0C39.3,0.7,39,0.8,38.6,1c-0.1,0-0.1,0.1-0.2,0.1c0,0-0.1,0-0.1,0
		c0,0,0-0.1,0-0.1c0-0.1,0.1-0.1,0.1-0.2c0.2-0.2,0.4-0.3,0.6-0.3c0.7-0.3,1.4-0.3,2.1-0.2c0.1,0,0.3,0.1,0.4,0.2c0,0,0.1,0,0.1,0.1
		C41.7,0.6,41.7,0.6,41.6,0.7C41.6,0.7,41.6,0.7,41.6,0.7"/>
	<path d="M33.8,0.7c0.2,0,0.4,0,0.5-0.1c0.4-0.1,0.9-0.1,1.3,0C36,0.7,36.4,0.8,36.7,1c0.1,0,0.1,0.1,0.2,0.1c0,0,0.1,0,0.1,0
		c0,0,0-0.1,0-0.1c0-0.1-0.1-0.1-0.1-0.2c-0.2-0.2-0.4-0.3-0.6-0.3c-0.7-0.3-1.4-0.3-2.1-0.2c-0.1,0-0.3,0.1-0.4,0.2
		c0,0-0.1,0-0.1,0.1C33.7,0.6,33.6,0.6,33.8,0.7C33.7,0.7,33.7,0.7,33.8,0.7"/>
	<path class="st1" d="M39.5,3.4c-0.1,0.2-0.4,0.3-0.8,0.2c-0.3-0.1-0.6-0.4-0.5-0.6c0.1-0.2,0.4-0.3,0.8-0.2
		C39.3,2.9,39.5,3.2,39.5,3.4"/>
</g>
</svg>
