<?xml version="1.0" encoding="utf-8"?>
<!-- Generator: Adobe Illustrator 16.0.3, SVG Export Plug-In . SVG Version: 6.00 Build 0)  -->
<!DOCTYPE svg PUBLIC "-//W3C//DTD SVG 1.1//EN" "http://www.w3.org/Graphics/SVG/1.1/DTD/svg11.dtd">
<svg version="1.1" id="Capa_1" xmlns="http://www.w3.org/2000/svg" xmlns:xlink="http://www.w3.org/1999/xlink" x="0px" y="0px"
	 width="600px" height="600px" viewBox="0 0 600 600" enable-background="new 0 0 600 600" xml:space="preserve">
<g>
	<defs>
		<path id="SVGID_1_" d="M2246,177.1c39.699,29,73,64.601,90.199,106.2c17.2,41.7,18.301,89.601,7.801,133
			c-10.5,43.5-32.601,82.601-59.801,121.4c-27.1,38.8-59.399,77.399-101.8,97.2c-42.5,19.8-95.199,20.699-139.1,2.8
			c-44-17.8-79.2-54.5-114-92.7s-69-77.9-78.8-123.2s5-96.2,32.899-134.399c27.9-38.2,69-63.601,109.601-92.2
			c40.6-28.601,80.8-60.4,124-65C2160.1,125.5,2206.3,148.1,2246,177.1z"/>
	</defs>
	<clipPath id="SVGID_2_">
		<use xlink:href="#SVGID_1_"  overflow="visible"/>
	</clipPath>
	<g transform="matrix(1 0 0 1 7.327253e-005 5.691292e-006)" clip-path="url(#SVGID_2_)">
		
			<image overflow="visible" width="1616" height="1071" xlink:href="../../../../../../Downloads/azul_morado.png"  transform="matrix(0.4987 0 0 0.4987 1820.1252 118.8784)">
		</image>
	</g>
</g>
<g transform="translate(300,300)">
	<path fill="#6B27FF" d="M146.884-212.926c39.699,29,73,64.601,90.199,106.2c17.2,41.7,18.301,89.601,7.801,133
		c-10.5,43.5-32.601,82.601-59.801,121.4c-27.1,38.8-59.399,77.399-101.8,97.2c-42.5,19.8-95.199,20.699-139.099,2.8
		c-44-17.8-79.2-54.5-114-92.7s-69-77.9-78.8-123.2s5-96.2,32.899-134.399c27.9-38.2,69-63.601,109.601-92.2
		c40.6-28.601,80.8-60.4,124-65C60.984-264.525,107.184-241.926,146.884-212.926z"/>
</g>
<g>
	<defs>
		<path id="SVGID_3_" d="M1118.884,87.074c39.699,29,73,64.601,90.199,106.2c17.2,41.7,18.301,89.601,7.801,133
			c-10.5,43.5-32.601,82.601-59.801,121.4c-27.1,38.8-59.399,77.399-101.8,97.2c-42.5,19.8-95.199,20.699-139.1,2.8
			c-44-17.8-79.199-54.5-114-92.7c-34.799-38.2-69-77.9-78.799-123.2c-9.801-45.3,5-96.2,32.898-134.399
			c27.9-38.2,69-63.601,109.602-92.2c40.6-28.601,80.799-60.4,123.999-65C1032.984,35.475,1079.184,58.074,1118.884,87.074z"/>
	</defs>
	<clipPath id="SVGID_4_">
		<use xlink:href="#SVGID_3_"  overflow="visible"/>
	</clipPath>
	<g clip-path="url(#SVGID_4_)">
		<defs>
			<rect id="SVGID_5_" x="610.36" y="28.474" width="808.749" height="535.998"/>
		</defs>
		<clipPath id="SVGID_6_">
			<use xlink:href="#SVGID_5_"  overflow="visible"/>
		</clipPath>
		<g transform="matrix(1 0 0 1 -5.651780e-007 -1.954369e-006)" clip-path="url(#SVGID_6_)">
			
				<image overflow="visible" width="1616" height="1071" xlink:href="../../../../../../Downloads/verde_morado.png"  transform="matrix(0.8638 0 0 0.8638 23.1843 28.4746)">
			</image>
		</g>
	</g>
</g>
<g transform="translate(300,300)">
	<path fill="#00CCCD" d="M768,411.1c39.699,29,73,64.601,90.199,106.2C875.4,559,876.5,606.9,866,650.3
		c-10.5,43.5-32.601,82.601-59.801,121.4c-27.1,38.8-59.399,77.399-101.8,97.2c-42.5,19.8-95.199,20.699-139.1,2.8
		c-44-17.8-79.2-54.5-114-92.7s-69-77.9-78.8-123.2s5-96.2,32.899-134.399c27.9-38.2,69-63.601,109.601-92.2
		c40.6-28.601,80.8-60.4,124-65C682.1,359.5,728.3,382.1,768,411.1z"/>
</g>
<g>
	<defs>
		<path id="SVGID_7_" d="M1670.884,105.074c39.699,29,73,64.601,90.199,106.2c17.2,41.7,18.301,89.601,7.801,133
			c-10.5,43.5-32.601,82.601-59.801,121.4c-27.1,38.8-59.399,77.399-101.8,97.2c-42.5,19.8-95.199,20.699-139.1,2.8
			c-44-17.8-79.199-54.5-114-92.7c-34.799-38.2-69-77.9-78.799-123.2c-9.801-45.3,5-96.2,32.898-134.399
			c27.9-38.2,69-63.601,109.602-92.2c40.6-28.601,80.799-60.4,123.999-65C1584.984,53.475,1631.184,76.074,1670.884,105.074z"/>
	</defs>
	<clipPath id="SVGID_8_">
		<use xlink:href="#SVGID_7_"  overflow="visible"/>
	</clipPath>
	<g transform="matrix(1 0 0 1 -1.002791e-004 -8.878724e-007)" clip-path="url(#SVGID_8_)">
		
			<image overflow="visible" width="1616" height="1071" xlink:href="../../../../../../Downloads/verde_azul.png"  transform="matrix(0.4936 0 0 0.4936 1169.6643 51.8164)">
		</image>
	</g>
</g>
<g transform="translate(300,300)">
	<path fill="#34A3D7" d="M1390,411.1c39.699,29,73,64.601,90.199,106.2c17.2,41.7,18.301,89.601,7.801,133
		c-10.5,43.5-32.601,82.601-59.801,121.4c-27.1,38.8-59.399,77.399-101.8,97.2c-42.5,19.8-95.199,20.699-139.1,2.8
		c-44-17.8-79.2-54.5-114-92.7s-69-77.9-78.8-123.2s5-96.2,32.899-134.399c27.9-38.2,69-63.601,109.601-92.2
		c40.6-28.601,80.8-60.4,124-65C1304.1,359.5,1350.3,382.1,1390,411.1z"/>
</g>
</svg>
